<?xml version="1.0" standalone="no"?><!DOCTYPE svg PUBLIC "-//W3C//DTD SVG 1.1//EN" "http://www.w3.org/Graphics/SVG/1.1/DTD/svg11.dtd"><svg t="1723777234102" class="icon" viewBox="0 0 1024 1024" version="1.1" xmlns="http://www.w3.org/2000/svg" p-id="2455" xmlns:xlink="http://www.w3.org/1999/xlink" width="256" height="256"><path d="M166.253714 548.571429a36.571429 36.571429 0 0 1 35.986286 29.988571l0.585143 6.582857v302.518857a36.571429 36.571429 0 0 1-72.557714 6.582857l-0.585143-6.582857V585.142857a36.571429 36.571429 0 0 1 36.571428-36.571428zM166.253714 73.142857a36.571429 36.571429 0 0 1 35.986286 29.988572l0.585143 6.582857v302.518857a36.571429 36.571429 0 0 1-72.557714 6.582857l-0.585143-6.582857V109.714286a36.571429 36.571429 0 0 1 36.571428-36.571429zM512 462.116571a36.571429 36.571429 0 0 1 35.986286 29.988572l0.585143 6.582857v388.973714a36.571429 36.571429 0 0 1-72.557715 6.582857l-0.585143-6.582857V498.688a36.571429 36.571429 0 0 1 36.571429-36.571429zM512 73.142857a36.571429 36.571429 0 0 1 35.986286 29.988572l0.585143 6.582857v216.137143a36.571429 36.571429 0 0 1-72.557715 6.582857l-0.585143-6.582857V109.714286A36.571429 36.571429 0 0 1 512 73.142857zM857.746286 635.026286a36.571429 36.571429 0 0 1 35.986285 29.988571l0.585143 6.582857v216.064a36.571429 36.571429 0 0 1-72.557714 6.582857l-0.585143-6.582857V671.597714a36.571429 36.571429 0 0 1 36.571429-36.571428zM857.746286 73.142857a36.571429 36.571429 0 0 1 35.986285 29.988572l0.585143 6.582857v388.973714a36.571429 36.571429 0 0 1-72.557714 6.582857l-0.585143-6.582857V109.714286a36.571429 36.571429 0 0 1 36.571429-36.571429z" fill="#ffffff" p-id="2456"></path><path d="M295.862857 548.571429a36.571429 36.571429 0 0 1 6.582857 72.557714l-6.582857 0.585143H43.885714a36.571429 36.571429 0 0 1-6.582857-72.557715L43.885714 548.571429h251.977143zM641.682286 289.28a36.571429 36.571429 0 0 1 6.582857 72.484571l-6.582857 0.658286H382.317714a36.571429 36.571429 0 0 1-6.582857-72.557714l6.582857-0.585143h259.364572zM980.114286 635.026286a36.571429 36.571429 0 0 1 6.582857 72.557714l-6.582857 0.585143H728.137143a36.571429 36.571429 0 0 1-6.582857-72.557714l6.582857-0.585143H980.114286z" fill="#ffffff" p-id="2457"></path></svg>