<?xml version="1.0" standalone="no"?><!DOCTYPE svg PUBLIC "-//W3C//DTD SVG 1.1//EN" "http://www.w3.org/Graphics/SVG/1.1/DTD/svg11.dtd"><svg t="1722482487731" class="icon" viewBox="0 0 1024 1024" version="1.1" xmlns="http://www.w3.org/2000/svg" p-id="5807" xmlns:xlink="http://www.w3.org/1999/xlink" width="256" height="256"><path d="M232.5504 565.4528c3.9936 3.9936 9.216 5.9392 14.5408 5.9392 5.2224 0 10.5472-1.9456 14.5408-5.9392 0.1024-0.1024 0.3072-0.3072 0.4096-0.512l72.2944-77.4144c7.9872-7.9872 7.9872-20.992 0-28.9792-7.9872-7.9872-20.992-7.9872-28.9792 0l-58.2656 63.3856-33.5872-25.2928c-7.9872-7.9872-20.992-7.9872-28.9792 0-7.9872 7.9872-7.9872 20.992 0 28.9792l47.5136 39.3216 0.512 0.512zM259.3792 180.224c-46.2848 0-83.968 37.6832-83.968 83.968s37.6832 83.968 83.968 83.968 83.968-37.6832 83.968-83.968c0.1024-46.2848-37.5808-83.968-83.968-83.968z m0 126.976c-23.7568 0-43.008-19.3536-43.008-43.008s19.3536-43.008 43.008-43.008 43.008 19.3536 43.008 43.008-19.2512 43.008-43.008 43.008zM259.3792 675.84c-46.2848 0-83.968 37.6832-83.968 83.968s37.6832 83.968 83.968 83.968 83.968-37.6832 83.968-83.968-37.5808-83.968-83.968-83.968z m0 126.976c-23.7568 0-43.008-19.3536-43.008-43.008s19.3536-43.008 43.008-43.008 43.008 19.3536 43.008 43.008-19.2512 43.008-43.008 43.008zM414.8224 284.672h437.0432c11.264 0 20.48-9.216 20.48-20.48s-9.216-20.48-20.48-20.48H414.8224c-11.264 0-20.48 9.216-20.48 20.48s9.216 20.48 20.48 20.48zM851.8656 491.52H414.8224c-11.264 0-20.48 9.216-20.48 20.48s9.216 20.48 20.48 20.48h437.0432c11.264 0 20.48-9.216 20.48-20.48s-9.216-20.48-20.48-20.48zM851.8656 739.328H414.8224c-11.264 0-20.48 9.216-20.48 20.48s9.216 20.48 20.48 20.48h437.0432c11.264 0 20.48-9.216 20.48-20.48s-9.216-20.48-20.48-20.48z" p-id="5808" fill="#ffffff"></path></svg>