<?xml version="1.0" standalone="no"?><!DOCTYPE svg PUBLIC "-//W3C//DTD SVG 1.1//EN" "http://www.w3.org/Graphics/SVG/1.1/DTD/svg11.dtd"><svg t="1722830160494" class="icon" viewBox="0 0 1024 1024" version="1.1" xmlns="http://www.w3.org/2000/svg" p-id="4023" xmlns:xlink="http://www.w3.org/1999/xlink" width="256" height="256"><path d="M294.3 143.8h435.4v60H294.3z" p-id="4024" fill="#298dff"></path><path d="M512 886.7c-86.8 0-157.5-70.6-157.5-157.5V148.8h314.9v580.4c0.1 86.8-70.6 157.5-157.4 157.5zM404.5 198.8v530.4c0 59.3 48.2 107.5 107.5 107.5s107.5-48.2 107.5-107.5V198.8h-215z" p-id="4025" fill="#298dff"></path><path d="M379.5 533.8v195.4c0 73.2 59.3 132.5 132.5 132.5s132.5-59.3 132.5-132.5V463.8l-265 70z m92.8 111.7c-21.6 0-39-17.5-39-39s17.5-39 39-39c21.6 0 39 17.5 39 39s-17.4 39-39 39z m40.8 162.2c-11 0-19.9-8.9-19.9-19.9 0-11 8.9-19.9 19.9-19.9 11 0 19.9 8.9 19.9 19.9 0 11-8.9 19.9-19.9 19.9z m47.9-89.8c-16 0-29-13-29-29s13-29 29-29 29 13 29 29-13 29-29 29zM561 237.7h63.1V284H561zM561 307.7h63.1V354H561zM561 376.7h63.1V423H561z" p-id="4026" fill="#298dff"></path></svg>