<?xml version="1.0" standalone="no"?><!DOCTYPE svg PUBLIC "-//W3C//DTD SVG 1.1//EN" "http://www.w3.org/Graphics/SVG/1.1/DTD/svg11.dtd"><svg t="1722482692024" class="icon" viewBox="0 0 1024 1024" version="1.1" xmlns="http://www.w3.org/2000/svg" p-id="7011" xmlns:xlink="http://www.w3.org/1999/xlink" width="256" height="256"><path d="M827.436522 122.212174H196.563478a74.573913 74.573913 0 0 0-74.351304 74.351304v630.873044a74.573913 74.573913 0 0 0 74.351304 74.351304h630.873044a74.573913 74.573913 0 0 0 74.351304-74.351304V196.563478a74.573913 74.573913 0 0 0-74.351304-74.351304z m52.090435 705.224348a52.090435 52.090435 0 0 1-52.090435 52.090435H196.563478a52.090435 52.090435 0 0 1-52.090435-52.090435V196.563478a52.090435 52.090435 0 0 1 52.090435-52.090435h630.873044a52.090435 52.090435 0 0 1 52.090435 52.090435z" p-id="7012" fill="#ffffff"></path><path d="M761.766957 442.10087H262.233043a66.782609 66.782609 0 0 0 0 135.123478h499.533914a66.782609 66.782609 0 0 0 0-135.123478z m-461.467827 99.060869h-38.066087a31.610435 31.610435 0 0 1 0-62.998261h38.066087z m387.339131 0H336.361739v-62.998261h351.276522z m74.128696 0h-38.066087v-62.998261h38.066087a31.610435 31.610435 0 0 1 0 62.998261zM512 621.523478a12.466087 12.466087 0 0 0-12.466087 12.466087v98.838261a12.466087 12.466087 0 0 0 24.932174 0v-98.838261a12.466087 12.466087 0 0 0-12.466087-12.466087zM409.822609 621.746087a12.243478 12.243478 0 0 0-14.692174 9.572174L378.434783 716.132174a12.243478 12.243478 0 0 0 9.572174 14.692174h2.448695a12.243478 12.243478 0 0 0 12.243478-10.017391l17.14087-84.591305a12.243478 12.243478 0 0 0-10.017391-14.469565zM301.857391 623.304348a12.466087 12.466087 0 0 0-16.027826 7.346087l-24.486956 66.782608a12.466087 12.466087 0 0 0 7.568695 15.805218 9.126957 9.126957 0 0 0 4.229566 0 12.243478 12.243478 0 0 0 11.575652-8.236522l24.709565-66.782609a12.688696 12.688696 0 0 0-7.568696-14.914782zM628.869565 631.318261a12.466087 12.466087 0 0 0-14.692174-9.572174 12.243478 12.243478 0 0 0-9.572174 14.692174l17.14087 84.591304a12.243478 12.243478 0 0 0 12.243478 10.017392h2.448696a12.243478 12.243478 0 0 0 9.572174-14.692174zM738.170435 629.537391a12.466087 12.466087 0 0 0-16.027826-7.346087 12.688696 12.688696 0 0 0-7.568696 16.027826l24.709565 66.782609a12.243478 12.243478 0 0 0 11.575652 8.236522 9.126957 9.126957 0 0 0 4.229566 0 12.466087 12.466087 0 0 0 7.568695-15.805218zM460.577391 412.048696q34.726957 0 34.726957-36.730435v-52.090435h-14.469565v51.422609c0 16.473043-6.233043 24.709565-19.144348 24.709565s-20.034783-8.45913-20.034783-25.6v-50.532174h-14.469565v53.426087q0 35.394783 33.391304 35.394783zM565.426087 410.490435l31.387826-87.262609h-15.36l-22.26087 66.782609a33.613913 33.613913 0 0 0-1.780869 7.568695 46.525217 46.525217 0 0 0-0.890435-8.013913l-22.260869-66.782608h-15.805218l30.72 87.262608z" p-id="7013" fill="#ffffff"></path></svg>